<svg width="1136" height="184" viewBox="0 0 1136 184" fill="none" xmlns="http://www.w3.org/2000/svg">
<path d="M92 184C142.81 184 184 142.81 184 92C184 41.1898 142.81 0 92 0C41.1898 0 0 41.1898 0 92C0 142.81 41.1898 184 92 184Z" fill="#77459B"/>
<path d="M66.7861 54.7295C72.591 54.7295 77.2968 50.0237 77.2968 44.2188C77.2968 38.4139 72.591 33.7081 66.7861 33.7081C60.9812 33.7081 56.2755 38.4139 56.2755 44.2188C56.2755 50.0237 60.9812 54.7295 66.7861 54.7295Z" fill="#46BFB2"/>
<path d="M152.485 83.2705C152.485 69.7772 141.436 58.796 127.851 58.796C121.012 58.796 114.819 61.6106 110.366 66.1308C106.3 60.6612 99.7381 57.1996 92.6974 57.1996C80.6155 57.1996 70.7938 67.0046 70.7938 79.0528C70.7938 86.2616 74.1125 90.6557 76.087 93.2771L76.8347 94.2685C78.7755 96.8395 82.8168 102.2 82.8168 111.761C82.8168 119.314 80.6996 124.49 76.5323 127.162L76.4314 127.229C75.4736 127.842 72.575 129.707 67.1978 129.707C62.4928 129.707 58.3171 126.834 56.5779 122.482L43.6895 126.221C47.1259 136.328 56.5275 143.092 67.1978 143.092C73.3732 143.092 78.9184 141.546 83.6738 138.487L83.7578 138.437C89.4375 134.799 96.2177 127.22 96.2177 111.761C96.2177 97.7133 90.1348 89.6559 87.5386 86.2112L86.7825 85.2113C85.2786 83.2201 84.1947 81.7834 84.1947 79.0612C84.1947 74.4738 88.0932 70.5922 92.7142 70.5922C96.4278 70.5922 99.7801 73.0287 100.872 76.5238C100.898 76.6079 100.931 76.6919 100.956 76.7759C101.948 79.5569 103.04 84.0183 103.62 87.1017C103.628 87.169 103.67 87.379 103.712 87.6143C103.729 87.7067 103.746 87.7991 103.763 87.8915C103.771 87.9587 103.788 88.0343 103.796 88.11C104.611 93.025 105.023 97.8057 105.023 102.317C105.023 108.594 104.309 114.836 102.914 120.911H116.601C117.794 114.803 118.415 108.568 118.415 102.317C118.415 97.1587 117.953 91.748 117.054 86.2196C117.029 86.0179 116.987 85.7995 116.937 85.5222C116.903 85.3206 116.861 85.1105 116.827 84.9005C116.76 84.43 116.727 83.741 116.727 83.2789C116.727 77.2716 121.826 72.1969 127.859 72.1969C134.06 72.1969 139.109 77.1708 139.109 83.2789C139.109 87.4546 136.883 91.2186 133.287 93.2015L148.049 97.4948C150.88 93.4115 152.485 88.488 152.485 83.2705Z" fill="#F6F3F8"/>
<path d="M258.384 56.7495V104.494C258.384 108.216 257.511 111.137 255.689 113.24C253.905 115.361 251.287 116.44 247.871 116.44C244.455 116.44 241.665 115.324 239.824 113.128C237.983 110.914 236.997 107.844 236.921 103.843H218C218 113.035 220.771 120.18 226.312 125.315C231.854 130.432 239.122 132.981 248.136 132.981C257.151 132.981 264.172 130.488 269.486 125.501C274.819 120.515 277.476 113.519 277.476 104.513V51.2977L258.384 56.7495Z" fill="#303030"/>
<path d="M431.402 69.123C428.992 65.6994 425.633 62.8525 421.344 60.5825C417.055 58.3311 412.121 57.1961 406.542 57.1961C400.241 57.1961 394.51 58.7963 389.31 61.9594C384.148 65.1226 380.049 69.6254 377.013 75.3935C373.995 81.1988 372.496 87.8414 372.496 95.3399C372.496 102.838 373.976 109.332 377.013 115.082C380.03 120.813 384.129 125.241 389.31 128.33C394.51 131.437 400.279 132.963 406.674 132.963C412.254 132.963 417.15 131.865 421.344 129.651C425.538 127.437 428.878 124.664 431.402 121.315L450.475 126.748V51.2977H431.421V69.123H431.402ZM428.688 106.69C426.905 109.909 424.456 112.384 421.401 114.096C418.327 115.826 415.044 116.682 411.533 116.682C408.022 116.682 404.777 115.863 401.797 114.17C398.818 112.514 396.427 110.039 394.586 106.82C392.726 103.601 391.815 99.7683 391.815 95.3585C391.815 90.9487 392.726 87.0785 394.586 83.7665C396.427 80.4545 398.856 77.924 401.873 76.1378C404.891 74.3887 408.117 73.4956 411.533 73.4956C414.949 73.4956 418.327 74.3515 421.401 76.0819C424.456 77.8124 426.886 80.2871 428.688 83.506C430.51 86.7436 431.383 90.6138 431.383 95.098C431.383 99.6009 430.51 103.471 428.688 106.69Z" fill="#303030"/>
<path d="M344.884 62.9642C342.379 59.615 339.02 56.8239 334.826 54.6283C330.632 52.4141 325.754 51.2977 320.156 51.2977C313.761 51.2977 307.991 52.8421 302.792 55.9494C297.63 59.0195 293.531 63.4479 290.494 69.1974C287.477 74.9469 285.958 81.5151 285.958 88.9392C285.958 96.3633 287.477 103.08 290.494 108.886C293.512 114.654 297.611 119.138 302.792 122.32C307.991 125.483 313.704 127.083 320.023 127.083C325.603 127.083 330.556 125.948 334.826 123.697C339.115 121.445 342.455 118.58 344.884 115.138V132.963H363.956V57.531L344.884 62.9642ZM342.189 100.81C340.386 104.029 337.938 106.485 334.902 108.216C331.827 109.928 328.544 110.802 325.033 110.802C321.522 110.802 318.391 109.909 315.374 108.16C312.356 106.374 309.927 103.843 308.086 100.531C306.226 97.2192 305.316 93.3676 305.316 88.9392C305.316 84.5108 306.226 80.6964 308.086 77.4774C309.927 74.2585 312.318 71.7838 315.298 70.1278C318.277 68.4346 321.503 67.5973 325.033 67.5973C328.563 67.5973 331.827 68.4532 334.902 70.2022C337.957 71.914 340.386 74.3887 342.189 77.6263C344.011 80.8453 344.884 84.6969 344.884 89.2183C344.903 93.7211 344.011 97.5727 342.189 100.81Z" fill="#303030"/>
<path d="M511.146 108.755C508.166 114.672 503.175 117.631 496.154 117.631C491.295 117.631 487.196 116.124 483.856 113.128C480.497 110.114 478.618 105.964 478.182 100.661H532.913C533.255 98.5403 533.444 96.1587 533.444 93.5165H533.463C533.463 86.3529 531.907 80.0266 528.814 74.5004C525.702 68.9742 521.318 64.7132 515.7 61.6989C510.064 58.7033 503.688 57.1961 496.571 57.1961C489.454 57.1961 482.642 58.7405 476.986 61.8292C471.312 64.9365 466.89 69.3277 463.74 75.0958C460.571 80.8267 459.015 87.4879 459.015 95.0981C459.015 102.708 460.59 109.221 463.816 114.989C467.004 120.738 471.464 125.167 477.176 128.293C482.907 131.437 489.379 133 496.571 133C505.49 133 513.006 130.749 519.154 126.171C523.69 122.804 527.125 118.766 529.497 114.021L511.146 108.755ZM478.334 88.195C479.055 83.2642 481.009 79.394 484.198 76.603C487.386 73.8305 491.352 72.4536 496.021 72.4536C500.974 72.4536 505.168 73.8864 508.584 76.7518C512 79.6359 513.746 83.4316 513.841 88.2136H478.334C478.334 88.195 478.334 88.195 478.334 88.195Z" fill="#303030"/>
<path d="M1097.06 131.158C1075.52 131.158 1059.22 116.682 1059.22 94.1863C1059.22 71.5605 1076.05 57.2147 1097.61 57.2147C1119.17 57.2147 1136 71.5605 1136 94.1863C1135.98 116.682 1118.75 131.158 1097.06 131.158ZM1097.06 115.379C1107.02 115.379 1116.59 108.402 1116.59 94.1863C1116.59 79.8405 1107.29 72.9932 1097.32 72.9932C1087.36 72.9932 1078.33 79.8405 1078.33 94.1863C1078.35 108.402 1086.96 115.379 1097.06 115.379Z" fill="#303030"/>
<path d="M1031.07 69.5695V57.2147L1012.29 62.5734V131.158H1031.07V94.8375C1031.07 80.7522 1037.79 76.5471 1048.93 76.5471H1053.9V57.2147C1043.56 57.2147 1035.78 62.071 1031.07 69.5695Z" fill="#303030"/>
<path d="M970.573 108.067C994.807 108.067 1004.5 93.8142 1004.5 79.8033C1004.5 63.8201 993.194 51.2791 970.573 51.2791H935.958V132.981L954.822 127.604V108.067H970.573ZM954.803 66.3506H969.757C980.403 66.3506 985.11 71.3744 985.11 79.8219C985.11 88.0089 980.403 93.1629 969.757 93.1629H954.803V66.3506Z" fill="#303030"/>
<path d="M784.859 68.8997C782.429 65.4575 779.07 62.592 774.762 60.3406C770.455 58.0706 765.501 56.9542 759.903 56.9542C753.565 56.9542 747.833 58.5543 742.615 61.7361C737.434 64.9179 733.316 69.4393 730.279 75.226C727.243 81.0499 725.744 87.7111 725.744 95.2469C725.744 102.783 727.243 109.295 730.279 115.063C733.316 120.813 737.434 125.26 742.615 128.348C747.833 131.474 753.622 133 760.036 133C765.634 133 770.549 131.902 774.762 129.688C778.975 127.474 782.335 124.701 784.859 121.334L803.988 126.785V51H784.859V68.8997ZM782.145 106.597C780.361 109.816 777.894 112.328 774.838 114.04C771.745 115.789 768.462 116.626 764.932 116.626C761.402 116.626 758.157 115.807 755.159 114.096C752.16 112.421 749.769 109.946 747.909 106.727C746.031 103.49 745.139 99.6381 745.139 95.2283C745.139 90.8185 746.05 86.9111 747.909 83.5804C749.75 80.2684 752.179 77.7193 755.216 75.9331C758.252 74.1654 761.478 73.2723 764.913 73.2723C768.348 73.2723 771.726 74.1468 774.819 75.8586C777.875 77.6077 780.323 80.0824 782.126 83.3013C783.948 86.5575 784.84 90.4277 784.84 94.9492C784.859 99.4706 783.967 103.378 782.145 106.597Z" fill="#303030"/>
<path d="M904.531 62.7037C902.007 59.3358 898.648 56.5448 894.435 54.3492C890.222 52.135 885.326 51 879.708 51C873.275 51 867.487 52.563 862.287 55.6703C857.106 58.759 852.988 63.206 849.952 68.9555C846.915 74.7236 845.397 81.329 845.397 88.7717C845.397 96.2144 846.915 102.969 849.952 108.793C852.988 114.598 857.106 119.082 862.287 122.282C867.506 125.464 873.237 127.064 879.575 127.064C885.174 127.064 890.146 125.911 894.435 123.678C898.743 121.408 902.102 118.543 904.531 115.082V132.981H923.66V57.2519L904.531 62.7037ZM901.817 100.699C900.014 103.918 897.566 106.392 894.492 108.141C891.398 109.853 888.115 110.728 884.586 110.728C881.056 110.728 877.924 109.835 874.888 108.067C871.852 106.281 869.423 103.732 867.582 100.42C865.703 97.1075 864.811 93.2373 864.811 88.7903C864.811 84.3433 865.722 80.5103 867.582 77.2914C869.423 74.0538 871.833 71.5791 874.831 69.9231C877.83 68.2299 881.075 67.3739 884.605 67.3739C888.134 67.3739 891.417 68.2485 894.511 69.9789C897.566 71.6907 900.014 74.1654 901.817 77.4216C903.639 80.6592 904.531 84.5294 904.531 89.0508C904.531 93.5909 903.658 97.4425 901.817 100.699Z" fill="#303030"/>
<path d="M694.051 108.662C691.053 114.598 686.062 117.575 679.002 117.575C674.125 117.575 670.007 116.068 666.667 113.054C663.308 110.021 661.41 105.871 660.973 100.55H715.894C716.236 98.4286 716.426 96.0283 716.426 93.3862H716.445C716.445 86.1854 714.888 79.8405 711.776 74.2956C708.645 68.7508 704.261 64.4713 698.625 61.4384C692.969 58.4427 686.574 56.9169 679.419 56.9169C672.265 56.9169 665.452 58.4799 659.778 61.5686C654.084 64.6946 649.644 69.1044 646.493 74.8725C643.305 80.6219 641.749 87.3018 641.749 94.9492C641.749 102.597 643.343 109.128 646.569 114.896C649.777 120.664 654.255 125.111 659.986 128.255C665.737 131.418 672.227 132.981 679.457 132.981C688.415 132.981 695.949 130.711 702.117 126.134C706.671 122.766 710.125 118.691 712.497 113.928L694.051 108.662ZM661.125 88.0274C661.846 83.078 663.801 79.1892 667.008 76.3982C670.215 73.6258 674.182 72.2303 678.888 72.2303C683.86 72.2303 688.073 73.663 691.508 76.5471C694.943 79.4311 696.689 83.2641 696.784 88.046H661.125C661.125 88.0274 661.125 88.0274 661.125 88.0274Z" fill="#303030"/>
<path d="M544.356 51H564.34L589.01 111.956L613.681 51H633.551V132.981H615.674V79.6544L594.894 132.981H583.108L562.214 79.6544V132.981H544.337V51H544.356Z" fill="#303030"/>
<path d="M816.342 59.7266C816.342 54.833 820.252 51 825.66 51C830.974 51 834.978 54.833 834.978 59.7266C834.978 64.6201 830.974 68.4531 825.66 68.4531C820.233 68.4345 816.342 64.6201 816.342 59.7266Z" fill="#303030"/>
<path d="M834.997 127.53H816.058V79.859L834.997 74.4631V127.53Z" fill="#303030"/>
</svg>
