<svg width="926" height="276" viewBox="0 0 926 276" fill="none" xmlns="http://www.w3.org/2000/svg">
<path d="M138 276C214.215 276 276 214.215 276 138C276 61.7847 214.215 0 138 0C61.7847 0 0 61.7847 0 138C0 214.215 61.7847 276 138 276Z" fill="#77459B"/>
<path d="M100.179 82.0942C108.886 82.0942 115.945 75.0356 115.945 66.3282C115.945 57.6209 108.886 50.5622 100.179 50.5622C91.4718 50.5622 84.4131 57.6209 84.4131 66.3282C84.4131 75.0356 91.4718 82.0942 100.179 82.0942Z" fill="#46BFB2"/>
<path d="M228.727 124.906C228.727 104.666 212.155 88.194 191.776 88.194C181.517 88.194 172.229 92.4159 165.55 99.1962C159.45 90.9918 149.607 85.7995 139.046 85.7995C120.923 85.7995 106.191 100.507 106.191 118.579C106.191 129.392 111.169 135.984 114.13 139.916L115.252 141.403C118.163 145.259 124.225 153.3 124.225 167.642C124.225 178.972 121.049 186.735 114.798 190.743L114.647 190.843C113.21 191.763 108.862 194.561 100.797 194.561C93.7392 194.561 87.4756 190.251 84.8668 183.723L65.5342 189.331C70.6888 204.492 84.7912 214.637 100.797 214.637C110.06 214.637 118.378 212.318 125.511 207.731L125.637 207.655C134.156 202.198 144.327 190.831 144.327 167.642C144.327 146.57 135.202 134.484 131.308 129.317L130.174 127.817C127.918 124.83 126.292 122.675 126.292 118.592C126.292 111.711 132.14 105.888 139.071 105.888C144.642 105.888 149.67 109.543 151.308 114.786C151.346 114.912 151.397 115.038 151.435 115.164C152.922 119.335 154.56 126.027 155.43 130.653C155.442 130.753 155.505 131.069 155.568 131.421C155.593 131.56 155.619 131.699 155.644 131.837C155.656 131.938 155.682 132.052 155.694 132.165C156.917 139.538 157.534 146.709 157.534 153.476C157.534 162.89 156.463 172.254 154.371 181.366H174.901C176.69 172.204 177.623 162.853 177.623 153.476C177.623 145.738 176.93 137.622 175.581 129.329C175.544 129.027 175.481 128.699 175.405 128.283C175.355 127.981 175.292 127.666 175.241 127.351C175.14 126.645 175.09 125.612 175.09 124.918C175.09 115.907 182.74 108.295 191.788 108.295C201.089 108.295 208.664 115.756 208.664 124.918C208.664 131.182 205.324 136.828 199.93 139.802L222.073 146.242C226.32 140.117 228.727 132.732 228.727 124.906Z" fill="#F6F3F8"/>
<path d="M571.721 170.019C569.273 166.478 565.893 163.525 561.582 161.195C557.252 158.866 552.283 157.71 546.638 157.71C540.28 157.71 534.507 159.361 529.263 162.644C524.057 165.928 519.91 170.569 516.859 176.53C513.808 182.529 512.31 189.389 512.31 197.13C512.31 204.871 513.808 211.585 516.859 217.528C519.91 223.453 524.038 228.021 529.263 231.212C534.507 234.422 540.316 236 546.784 236C552.411 236 557.343 234.863 561.582 232.588C565.802 230.295 569.182 227.452 571.721 223.985L590.959 229.598V151.602H571.74V170.019H571.721ZM568.999 208.833C567.191 212.153 564.724 214.722 561.655 216.501C558.549 218.299 555.242 219.161 551.698 219.161C548.154 219.161 544.884 218.317 541.888 216.556C538.873 214.832 536.462 212.282 534.598 208.962C532.716 205.642 531.803 201.679 531.803 197.13C531.803 192.581 532.716 188.564 534.598 185.152C536.443 181.74 538.891 179.117 541.942 177.283C544.993 175.467 548.227 174.549 551.68 174.549C555.133 174.549 558.531 175.448 561.637 177.209C564.706 179.007 567.172 181.557 568.981 184.877C570.808 188.234 571.703 192.214 571.703 196.855C571.721 201.496 570.826 205.495 568.999 208.833Z" fill="#303030"/>
<path d="M692.007 163.653C689.467 160.186 686.087 157.307 681.867 155.05C677.647 152.757 672.714 151.602 667.069 151.602C660.602 151.602 654.792 153.198 649.549 156.408C644.324 159.581 640.195 164.167 637.144 170.092C634.093 176.035 632.558 182.822 632.558 190.49C632.558 198.157 634.093 205.11 637.144 211.09C640.195 217.051 644.324 221.674 649.549 224.976C654.792 228.259 660.565 229.91 666.923 229.91C672.55 229.91 677.537 228.736 681.867 226.425C686.197 224.095 689.577 221.142 692.007 217.583V236H711.244V158.04L692.007 163.653ZM689.284 202.743C687.476 206.063 685.009 208.613 681.922 210.411C678.816 212.19 675.509 213.071 671.965 213.071C668.421 213.071 665.279 212.153 662.228 210.337C659.177 208.503 656.728 205.88 654.883 202.468C653.002 199.056 652.088 195.076 652.088 190.49C652.088 185.922 653.002 181.978 654.883 178.658C656.728 175.338 659.158 172.788 662.173 171.064C665.187 169.321 668.439 168.441 671.983 168.441C675.528 168.441 678.834 169.34 681.94 171.119C685.009 172.88 687.476 175.43 689.284 178.787C691.111 182.107 692.007 186.106 692.007 190.765C692.007 195.424 691.13 199.405 689.284 202.743Z" fill="#303030"/>
<path d="M480.466 210.943C477.452 217.051 472.428 220.115 465.339 220.115C460.425 220.115 456.296 218.555 452.934 215.474C449.554 212.355 447.654 208.081 447.198 202.597H502.408C502.755 200.414 502.937 197.956 502.937 195.222H502.956C502.956 187.812 501.384 181.281 498.26 175.577C495.118 169.872 490.697 165.469 485.033 162.351C479.352 159.269 472.921 157.71 465.723 157.71C458.525 157.71 451.674 159.306 445.974 162.498C440.237 165.708 435.779 170.257 432.619 176.2C429.422 182.125 427.85 189.004 427.85 196.855C427.85 204.706 429.44 211.456 432.692 217.4C435.907 223.343 440.42 227.911 446.175 231.139C451.948 234.386 458.488 236 465.741 236C474.73 236 482.311 233.67 488.523 228.956C493.09 225.489 496.561 221.307 498.955 216.391L480.466 210.943ZM447.362 189.719C448.093 184.638 450.066 180.621 453.281 177.741C456.497 174.88 460.498 173.449 465.211 173.449C470.217 173.449 474.437 174.935 477.89 177.888C481.343 180.86 483.097 184.803 483.188 189.719H447.362Z" fill="#303030"/>
<path d="M330 151.602H350.078L374.869 214.355L399.661 151.602H419.629V235.982H401.671V181.098L380.789 235.982H368.95L347.959 181.098V235.982H330V151.602Z" fill="#303030"/>
<path d="M603.364 160.572C603.364 155.546 607.292 151.602 612.736 151.602C618.071 151.602 622.108 155.546 622.108 160.572C622.108 165.598 618.071 169.542 612.736 169.542C607.292 169.542 603.364 165.616 603.364 160.572Z" fill="#303030"/>
<path d="M622.108 230.369H603.09V181.3L622.108 175.742V230.369Z" fill="#303030"/>
<path d="M370.594 45.6131V94.7553C370.594 98.5891 369.699 101.597 367.872 103.762C366.064 105.945 363.451 107.045 360.016 107.045C356.582 107.045 353.768 105.89 351.923 103.634C350.078 101.359 349.091 98.1855 349 94.0766H330C330 103.542 332.777 110.898 338.349 116.18C343.921 121.445 351.211 124.068 360.272 124.068C369.334 124.068 376.386 121.518 381.739 116.364C387.092 111.246 389.759 104.037 389.759 94.7553V40L370.594 45.6131Z" fill="#303030"/>
<path d="M544.482 58.3435C542.052 54.8215 538.672 51.8866 534.379 49.5569C530.067 47.2273 525.116 46.0717 519.489 46.0717C513.15 46.0717 507.395 47.7226 502.17 50.9877C496.982 54.2529 492.853 58.8754 489.82 64.8187C486.787 70.7987 485.289 77.6408 485.289 85.3634C485.289 93.086 486.787 99.763 489.82 105.688C492.853 111.576 496.982 116.144 502.17 119.317C507.395 122.509 513.186 124.086 519.617 124.086C525.226 124.086 530.14 122.968 534.361 120.675C538.563 118.4 541.942 115.557 544.464 112.108L563.628 117.703V40H544.482V58.3435ZM541.76 97.0115C539.969 100.313 537.503 102.881 534.452 104.642C531.364 106.422 528.076 107.302 524.532 107.302C520.987 107.302 517.754 106.458 514.758 104.716C511.761 103.01 509.35 100.46 507.505 97.1583C505.623 93.8381 504.728 89.8942 504.728 85.3634C504.728 80.8326 505.641 76.8337 507.505 73.4218C509.35 70.0099 511.78 67.4051 514.831 65.5708C517.863 63.7548 521.097 62.8376 524.532 62.8376C527.966 62.8376 531.364 63.7365 534.452 65.4974C537.521 67.2767 539.969 69.8265 541.778 73.1283C543.605 76.4668 544.5 80.429 544.5 85.0699C544.482 89.7108 543.587 93.7097 541.76 97.0115Z" fill="#303030"/>
<path d="M457.538 51.9966C455.017 48.5481 451.637 45.6681 447.435 43.4302C443.215 41.1556 438.301 40 432.692 40C426.261 40 420.451 41.5959 415.245 44.7876C410.056 47.9611 405.927 52.5102 402.895 58.4168C399.862 64.3418 398.327 71.1105 398.327 78.7414C398.327 86.3723 399.844 93.3061 402.895 99.2678C405.927 105.211 410.056 109.815 415.245 113.099C420.47 116.364 426.225 118.015 432.564 118.015C438.173 118.015 443.142 116.841 447.453 114.53C451.765 112.2 455.127 109.265 457.556 105.725V124.068H476.703V46.4202L457.538 51.9966ZM454.834 90.9582C453.026 94.26 450.559 96.8097 447.508 98.5891C444.421 100.35 441.132 101.249 437.588 101.249C434.044 101.249 430.92 100.332 427.887 98.5157C424.854 96.6813 422.406 94.0766 420.561 90.6647C418.679 87.2528 417.784 83.2906 417.784 78.7414C417.784 74.1922 418.698 70.2667 420.561 66.9466C422.406 63.6264 424.818 61.095 427.814 59.389C430.81 57.6464 434.062 56.7843 437.588 56.7843C441.132 56.7843 444.421 57.6831 447.508 59.4624C450.578 61.2234 453.026 63.7548 454.834 67.0933C456.661 70.4135 457.556 74.3757 457.556 79.0166C457.538 83.6758 456.661 87.6197 454.834 90.9582Z" fill="#303030"/>
<path d="M624.648 99.1394C621.651 105.229 616.646 108.274 609.575 108.274C604.679 108.274 600.569 106.715 597.225 103.652C593.864 100.552 591.964 96.2778 591.507 90.8298H646.516C646.863 88.6469 647.046 86.2072 647.046 83.474H647.064C647.064 76.0999 645.493 69.588 642.387 63.9015C639.245 58.2151 634.86 53.831 629.215 50.7126C623.551 47.6309 617.139 46.09 609.977 46.09C602.816 46.09 595.983 47.6859 590.301 50.8593C584.583 54.0511 580.144 58.5819 576.983 64.5069C573.804 70.3951 572.233 77.2556 572.233 85.0882C572.233 92.9209 573.822 99.6346 577.056 105.56C580.271 111.485 584.747 116.034 590.484 119.262C596.239 122.509 602.743 124.105 609.977 124.105C618.948 124.105 626.493 121.775 632.668 117.079C637.217 113.612 640.688 109.448 643.063 104.569L624.648 99.1394ZM591.653 77.9893C592.384 72.9265 594.339 68.9277 597.554 66.0661C600.77 63.2228 604.734 61.792 609.448 61.792C614.435 61.792 618.637 63.2779 622.09 66.2128C625.525 69.1661 627.278 73.0916 627.37 78.0077H591.653C591.653 77.9893 591.653 77.9893 591.653 77.9893Z" fill="#303030"/>
<path d="M886.867 235.982C865.2 235.982 848.83 221.087 848.83 197.919C848.83 174.641 865.748 159.856 887.415 159.856C909.083 159.856 926 174.623 926 197.919C925.982 221.087 908.662 235.982 886.867 235.982ZM886.867 219.748C896.879 219.748 906.488 212.557 906.488 197.919C906.488 183.152 897.153 176.09 887.123 176.09C877.111 176.09 868.031 183.134 868.031 197.919C868.05 212.575 876.709 219.748 886.867 219.748Z" fill="#303030"/>
<path d="M820.549 172.605V159.875L801.677 165.378V235.982H820.568V198.616C820.568 184.125 827.309 179.796 838.508 179.796H843.496V159.875C833.1 159.875 825.281 164.882 820.549 172.605Z" fill="#303030"/>
<path d="M759.731 210.356C784.102 210.356 793.84 195.681 793.84 181.263C793.84 164.809 782.476 151.914 759.731 151.914H724.946V236L743.891 230.46V210.356H759.731ZM743.891 167.395H758.909C769.596 167.395 774.346 172.568 774.346 181.263C774.346 189.683 769.615 194.984 758.909 194.984H743.891V167.395Z" fill="#303030"/>
</svg>
