<svg width="453" height="453" viewBox="0 0 453 453" fill="none" xmlns="http://www.w3.org/2000/svg">
<path d="M226.5 453C351.592 453 453 351.592 453 226.5C453 101.408 351.592 0 226.5 0C101.408 0 0 101.408 0 226.5C0 351.592 101.408 453 226.5 453Z" fill="#77459B"/>
<path d="M164.424 134.742C178.716 134.742 190.301 123.156 190.301 108.865C190.301 94.5734 178.716 82.9879 164.424 82.9879C150.133 82.9879 138.548 94.5734 138.548 108.865C138.548 123.156 150.133 134.742 164.424 134.742Z" fill="#46BFB2"/>
<path d="M375.411 205.008C375.411 171.788 348.21 144.753 314.763 144.753C297.925 144.753 282.68 151.683 271.717 162.811C261.706 149.345 245.551 140.823 228.217 140.823C198.472 140.823 174.291 164.962 174.291 194.625C174.291 212.372 182.462 223.19 187.323 229.644L189.164 232.085C193.942 238.415 203.891 251.612 203.891 275.151C203.891 293.747 198.679 306.489 188.419 313.066L188.171 313.232C185.813 314.742 178.676 319.334 165.438 319.334C153.855 319.334 143.574 312.26 139.292 301.545L107.562 310.75C116.022 335.634 139.168 352.285 165.438 352.285C180.642 352.285 194.294 348.479 206.001 340.95L206.208 340.826C220.191 331.869 236.884 313.211 236.884 275.151C236.884 240.566 221.908 220.729 215.516 212.248L213.655 209.787C209.952 204.884 207.284 201.347 207.284 194.645C207.284 183.351 216.882 173.795 228.258 173.795C237.401 173.795 245.654 179.793 248.343 188.398C248.405 188.605 248.488 188.812 248.55 189.019C250.991 195.866 253.68 206.849 255.107 214.441C255.128 214.606 255.231 215.123 255.335 215.703C255.376 215.93 255.418 216.158 255.459 216.385C255.48 216.551 255.521 216.737 255.542 216.923C257.548 229.024 258.562 240.793 258.562 251.901C258.562 267.353 256.803 282.722 253.37 297.677H287.065C290.003 282.639 291.533 267.291 291.533 251.901C291.533 239.201 290.396 225.88 288.182 212.269C288.12 211.772 288.017 211.235 287.893 210.552C287.81 210.056 287.707 209.538 287.624 209.021C287.458 207.863 287.376 206.167 287.376 205.029C287.376 190.239 299.931 177.746 314.783 177.746C330.049 177.746 342.48 189.991 342.48 205.029C342.48 215.31 336.999 224.576 328.146 229.458L364.489 240.028C371.46 229.975 375.411 217.854 375.411 205.008Z" fill="#F6F3F8"/>
</svg>
